<?xml version="1.0" encoding="utf-8"?>
<!-- Generator: Adobe Illustrator 22.0.0, SVG Export Plug-In . SVG Version: 6.00 Build 0)  -->
<svg version="1.1" id="Layer_1" xmlns="http://www.w3.org/2000/svg" xmlns:xlink="http://www.w3.org/1999/xlink" x="0px" y="0px"
	 viewBox="0 0 512 512" style="enable-background:new 0 0 512 512;" xml:space="preserve">
<style type="text/css">
	.st0{fill:#053EFF;}
</style>
<g>
	<g>
		<g>
			<path class="st0" d="M171.7,266.8h-78c-5.6,0-10.2,4.6-10.2,10.2v63c0,5.6,4.6,10.2,10.2,10.2h73.5c0.1,0,0.2,0,0.2,0
				c17.1-0.4,37.6-7.7,37.6-40.6C205,276,184.1,266.9,171.7,266.8z M167.1,329.8h-63.2v-42.6h67.7c3.1,0,13,1.8,13,22.4
				C184.6,326.4,179,329.6,167.1,329.8z"/>
			<path class="st0" d="M425,233.7c-8.2-8.2-19.4-12.4-33.4-12.4c-24.1,0-42.7,13.2-51.2,36.3c-1.1,3.1-0.7,6.6,1.2,9.4
				c1.9,2.7,5,4.4,8.4,4.4h77.8c3,0,5.9-1.4,7.9-3.7c1.9-2.4,2.7-5.4,2.1-8.4C436.3,252,433,241.8,425,233.7z M367.7,251
				c5.9-6.1,13.9-9.2,23.8-9.2c8.4,0,14.8,2.1,19,6.4c0.9,0.9,1.7,1.8,2.4,2.9H367.7z"/>
			<path class="st0" d="M93.7,225.9h72.6c5.2,0,13,0,19.5-6.3c6.1-6,9-15.9,9-31.1c0-31.1-20.5-32.9-22.9-33c-0.1,0-0.3,0-0.4,0
				l-77.8,0c-5.6,0-10.2,4.6-10.2,10.2v50C83.5,221.3,88.1,225.9,93.7,225.9z M103.9,175.9l67,0c1.2,0.4,3.4,3.8,3.4,12.6
				c0,13.4-2.5,16.2-2.8,16.5c-0.5,0.5-3.5,0.5-5.2,0.5h-62.4L103.9,175.9L103.9,175.9z"/>
			<path class="st0" d="M481.3,198.8c-21.3-24.2-51.8-36.5-90.9-36.5c-67.9,0-100.2,36.3-115.4,66.7c-3.5,7.1-6.3,14.1-8.4,20.8
				c-1.9-2.7-3.9-5.2-6.1-7.5c-1.9-2-3.8-3.8-5.9-5.5c10-10.7,18.8-27.4,18.8-52.9c0-30.3-10.5-55.5-30.5-72.8
				c-18-15.6-42.6-23.9-71.1-23.9H18.1C8.1,87.2,0,95.4,0,105.4v295c0,10,8.1,18.1,18.1,18.1h153.3c0.3,0,0.7,0,1.2,0
				c7.4,0,33.3-1,58.4-13.8c14.7-7.5,31.9-20.6,42.5-43.2c4.9,9.6,10.9,18.2,18,25.8c23.1,24.7,56.1,37.3,98.3,37.4
				c0.7,0,2.3,0.1,4.5,0.1c10.6,0,38.1-1.3,63.3-13.2c34.3-16.3,51.8-43.6,51.8-81.3c0-3.6-1-6.9-2.8-9.7c2.4-2.6,4-6,4.4-9.7
				C511.4,308,519.5,242.3,481.3,198.8z M491,306.2H348.5c-2.9,0-5.7,1.2-7.6,3.4s-2.9,5.1-2.5,8c1.9,16.6,9.6,29.3,22.2,36.8
				c11.8,7,24.7,7.8,29.7,7.8c1,0,1.7,0,1.9,0c18.3,0,32.3-4.6,40.7-13.2c6.5-6.7,8.2-12.9,8.6-16.4H489
				c-0.7,28.3-13.8,48.1-40.1,60.6c-21.4,10.2-45.3,11.3-54.5,11.3c-2.1,0-3.4-0.1-3.7-0.1c-0.2,0-0.3,0-0.5,0
				c-36.4,0-64.6-10.4-83.7-30.9c-11.7-12.5-19.8-28.5-24.1-47.5c-1.1-4.7-5.2-7.9-9.9-7.9c-0.2,0-0.4,0-0.5,0c-5,0.3-9,4-9.6,9
				c-3.3,27.5-17,47.6-40.5,59.6c-21.1,10.8-42.9,11.6-49.1,11.6c-0.4,0-0.7,0-0.8,0c-0.1,0-0.2,0-0.3,0H20.4V107.6h151.2
				c23.5,0,43.5,6.5,57.8,18.9c15.4,13.3,23.5,33.1,23.5,57.3c0,20.9-7.1,36.2-21,45.6c-3,2-4.7,5.5-4.5,9.2
				c0.3,3.6,2.4,6.9,5.7,8.5c4.6,2.2,8.9,5.3,12.5,9.2c6.6,7,11.5,16.5,14.5,28.3c1.2,4.8,5.7,8,10.6,7.7c4.9-0.3,8.9-4.1,9.5-9
				c1.3-11.2,4.6-28.2,13.2-45.2c12.6-25.3,39.8-55.4,97.2-55.4c32.9,0,58.4,9.9,75.6,29.5C495.2,245.5,492.1,295.5,491,306.2z
				 M421.6,326.6c-0.2,1.2-0.4,2.4-0.3,3.7c-0.1,0.5-0.7,2.1-3,4.4c-4.4,4.5-13.9,7-26.2,7c-0.4,0-0.8,0-1.1,0c-0.1,0-0.4,0-0.7,0
				c-1.8,0-11.4-0.2-19.2-4.9c-4.1-2.4-7.2-5.8-9.3-10.2L421.6,326.6L421.6,326.6z"/>
		</g>
	</g>
</g>
<g>
	<g>
		<path class="st0" d="M448.6,87.5H326.9c-10,0-18.1,7.6-18.1,17v31.4c0,9.4,8.1,17,18.1,17h121.7c10,0,18.1-7.6,18.1-17v-31.4
			C466.8,95.2,458.6,87.5,448.6,87.5z M446.4,132.6H329.2v-24.6h117.2L446.4,132.6L446.4,132.6z"/>
	</g>
</g>
<g>
	<g>
		<path class="st0" d="M40.8,315.2c-5.6,0-10.2,4.6-10.2,10.2v51c0,5.6,4.6,10.2,10.2,10.2S51,382,51,376.4v-51
			C51,319.7,46.4,315.2,40.8,315.2z"/>
	</g>
</g>
<g>
	<g>
		<path class="st0" d="M40.8,278.4c-5.6,0-10.2,4.6-10.2,10.2v5.1c0,5.6,4.6,10.2,10.2,10.2S51,299.4,51,293.7v-5.1
			C51,283,46.4,278.4,40.8,278.4z"/>
	</g>
</g>
</svg>
