<?xml version="1.0" encoding="utf-8"?>
<!-- Generator: Adobe Illustrator 22.0.0, SVG Export Plug-In . SVG Version: 6.00 Build 0)  -->
<svg version="1.1" id="Capa_1" xmlns="http://www.w3.org/2000/svg" xmlns:xlink="http://www.w3.org/1999/xlink" x="0px" y="0px"
	 viewBox="0 0 512 512" style="enable-background:new 0 0 512 512;" xml:space="preserve">
<style type="text/css">
	.st0{fill:#0E76A8;}
</style>
<g>
	<g>
		<path class="st0" d="M446,0H66C29.6,0,0,29.6,0,66v380c0,36.4,29.6,66,66,66h380c36.4,0,66-29.6,66-66V66C512,29.6,482.4,0,446,0z
			 M492,446c0,25.4-20.6,46-46,46H66c-25.4,0-46-20.6-46-46V66c0-25.4,20.6-46,46-46h380c25.4,0,46,20.6,46,46V446z"/>
	</g>
</g>
<g>
	<g>
		<path class="st0" d="M412.4,210.2C412.4,210.2,412.4,210.2,412.4,210.2c-14.2-16.3-33.8-24.5-58.4-24.5
			c-17.7,0-33.1,3.6-45.7,10.8c-6.1,3.5-12.1,8.1-18.1,13.7v-9.5c0-5.5-4.5-10-10-10h-72.8c-5.5,0-10,4.5-10,10v222.5
			c0,5.5,4.5,10,10,10h72.3c5.5,0,10-4.5,10-10V297.1c0-16.8,12.3-30.6,28.1-31.5l2.5-0.1c6.2-0.3,12.1,1.9,16.8,6.3
			c5,4.8,7.9,11.6,7.9,18.8v132.7c0,5.5,4.5,10,10,10h68.1c5.5,0,10-4.5,10-10V281.8C433.3,250.1,426.3,226,412.4,210.2z
			 M413.3,413.2h-48.1h0V290.5c0-12.7-5.2-24.8-14.2-33.3c-8.7-8.2-19.9-12.4-31.6-11.7l-2.5,0.1c-26.4,1.4-47,24.1-47,51.5v116.2
			h-52.3V210.7h52.8V237c0,4.3,2.8,8.2,6.9,9.5c4.1,1.3,8.6-0.1,11.2-3.6c10-13.6,20.1-23.3,29.9-29c9.6-5.5,21.6-8.2,35.8-8.2
			c18.8,0,32.9,5.8,43.3,17.6l0,0c10.5,12.1,15.9,31.8,15.9,58.5L413.3,413.2L413.3,413.2z"/>
	</g>
</g>
<g>
	<g>
		<path class="st0" d="M165.9,190.7H93.1c-5.5,0-10,4.5-10,10V284c0,5.5,4.5,10,10,10s10-4.5,10-10v-73.3h52.8v202.5h-52.8V369
			c0-5.5-4.5-10-10-10s-10,4.5-10,10v54.2c0,5.5,4.5,10,10,10h72.8c5.5,0,10-4.5,10-10V200.7C175.9,195.2,171.4,190.7,165.9,190.7z"
			/>
	</g>
</g>
<g>
	<g>
		<path class="st0" d="M100.1,321.9c-1.9-1.9-4.4-2.9-7.1-2.9c-2.6,0-5.2,1.1-7.1,2.9c-1.9,1.9-2.9,4.4-2.9,7.1s1.1,5.2,2.9,7.1
			c1.9,1.9,4.4,2.9,7.1,2.9c2.6,0,5.2-1.1,7.1-2.9c1.9-1.9,2.9-4.4,2.9-7.1S102,323.8,100.1,321.9z"/>
	</g>
</g>
<g>
	<g>
		<path class="st0" d="M129.5,78.8c-28,0-50.7,22.8-50.7,50.7s22.8,50.7,50.7,50.7s50.7-22.8,50.7-50.7S157.4,78.8,129.5,78.8z
			 M129.5,160.2c-16.9,0-30.7-13.8-30.7-30.7s13.8-30.7,30.7-30.7c16.9,0,30.7,13.8,30.7,30.7S146.4,160.2,129.5,160.2z"/>
	</g>
</g>
<g>
	<g>
		<path class="st0" d="M388.6,48h-81.5c-5.5,0-10,4.5-10,10s4.5,10,10,10h81.5c5.5,0,10-4.5,10-10S394.2,48,388.6,48z"/>
	</g>
</g>
<g>
	<g>
		<path class="st0" d="M261.8,48h-0.1c-5.5,0-10,4.5-10,10s4.5,10,10,10h0.1c5.5,0,10-4.5,10-10S267.3,48,261.8,48z"/>
	</g>
</g>
</svg>
