<?xml version="1.0" encoding="utf-8"?>
<!-- Generator: Adobe Illustrator 22.0.0, SVG Export Plug-In . SVG Version: 6.00 Build 0)  -->
<svg version="1.1" id="Layer_1" xmlns="http://www.w3.org/2000/svg" xmlns:xlink="http://www.w3.org/1999/xlink" x="0px" y="0px"
	 viewBox="0 0 900 369.9" style="enable-background:new 0 0 900 369.9;" xml:space="preserve">
<style type="text/css">
	.st0{fill:#1F6D92;}
	.st1{fill:#69BAAA;}
</style>
<g>
	<path class="st0" d="M46.2,64.6c8.5-6.3,20.6-9.5,36.2-9.5c22,0,38.9,6.4,50.8,19.2c11.9,12.8,17.9,29.6,17.9,50.3v10.6
		c0,19.3-5.3,34.8-16,46.6c-10.6,11.8-25.2,17.7-43.5,17.7c-14.6,0-26.9-2.3-36.8-6.8v30.9c5.8,0.2,12.5,1,20.3,2.4
		c2.9,0.5,4.4,2.3,4.4,5.1v14.3c0,2.7-1.4,4-4.1,4H4c-2.7,0-4-1.3-4-4v-14.3c0-2.9,1.4-4.6,4.3-5.1c5.1-1.1,11.4-1.9,19.2-2.4V89
		c0-5.6-2.8-8.4-8.4-8.4H4c-2.7,0-4-1.4-4-4V64.1c0-2.7,1.2-4.6,3.5-5.7c4.3-2.2,10.2-3.3,17.6-3.3C31.7,55.2,40.1,58.3,46.2,64.6z
		 M54.9,83v89.5c7.2,0.9,15.2,1.3,24.1,1.3c13.9,0,24.2-3.2,30.8-9.6c6.7-6.4,10-16.8,10-31.2v-6.7c0-14.8-3.7-26.1-11.1-34
		c-7.4-7.9-18.1-11.8-32.2-11.8C68.2,80.6,61,81.4,54.9,83z"/>
	<path class="st0" d="M255.5,174.2c13,0,25-0.8,36-2.4c3.1-0.5,4.6,0.5,4.6,3.2v13.5c0,2.9-1.4,4.8-4.3,5.7
		c-11.4,3.6-25.1,5.4-41.1,5.4c-25.3,0-43.6-5.9-55.2-17.6c-11.5-11.7-17.3-29.2-17.3-52.5v-7c0-21.6,5.6-38.2,16.9-49.9
		c11.3-11.6,27.7-17.4,49.4-17.4c20,0,35.3,5.1,45.7,15.3c10.5,10.2,15.7,24,15.7,41.5c0,20.9-12.8,31.4-38.4,31.4h-57.1
		c1.4,11.2,5.9,19.1,13.4,23.8C231.2,171.8,241.8,174.2,255.5,174.2z M209.6,117.9h55.7c6.1,0,9.2-2.7,9.2-8.1
		c0-19.5-10.2-29.2-30.6-29.2C221.8,80.6,210.3,93,209.6,117.9z"/>
	<path class="st0" d="M460.5,4.1v161.7c0,5.6,2.8,8.4,8.4,8.4H480c2.7,0,4,1.4,4,4v12.4c0,2.7-1.2,4.6-3.5,5.7
		c-4.3,2.2-10.2,3.3-17.6,3.3c-10.6,0-19-3.2-25.1-9.5c-8.5,6.3-20.6,9.5-36.2,9.5c-22,0-38.9-6.4-50.8-19.2
		c-11.9-12.8-17.8-29.6-17.8-50.3v-10.5c0-19.3,5.3-34.9,16-46.6c10.6-11.8,25.2-17.7,43.5-17.7c14.6,0,26.9,2.3,36.8,6.8V26
		c-7.4-0.5-13.8-1.3-19.2-2.4c-2.9-0.5-4.3-2.3-4.3-5.1V4.1c0-2.7,1.3-4.1,4.1-4.1h46.8C459.2,0,460.5,1.3,460.5,4.1z M405.1,80.6
		c-13.9,0-24.1,3.2-30.8,9.6c-6.7,6.4-10,16.8-10,31.2v6.8c0,14.6,3.6,25.9,10.8,34.1c7.2,8.1,17.4,12.2,30.6,12.2
		c8.5,0,16.3-0.9,23.5-2.7V81.9C421.6,81,413.6,80.6,405.1,80.6z"/>
	<path class="st0" d="M616,61.4v4.9c0,17-0.3,28.8-1.1,35.7c-0.2,2.7-1.8,4.1-4.9,4.1h-15.7c-2.9,0-4.6-1.5-5.1-4.3
		c-1.1-5.2-2-12.3-2.7-21.1c-12.3,0-22.6,0.8-31.1,2.4v88.4c5.8,0.2,12.5,1,20.3,2.4c2.9,0.5,4.4,2.3,4.4,5.1v14.3
		c0,2.7-1.4,4.1-4.1,4.1h-71.4c-2.7,0-4-1.3-4-4.1V179c0-2.9,1.4-4.6,4.3-5.1c5.8-1.1,12.2-1.8,19.2-2.2V89c0-5.6-2.8-8.4-8.4-8.4
		h-11.1c-2.7,0-4-1.4-4-4V64.1c0-2.7,1.2-4.6,3.5-5.7c4.3-2.2,10.2-3.3,17.6-3.3c10.6,0,19,3.2,25.1,9.5c9.6-6.3,24.2-9.5,44.1-9.5
		c7.4,0,14.5,0.5,21.4,1.6C614.8,57.2,616,58.7,616,61.4z"/>
	<path class="st1" d="M91.1,250.9h-9.2c-15.7,0-27,3.5-34.1,10.6c-7,7-10.6,17.9-10.6,32.7v7.3c0,14.8,3.6,25.6,10.7,32.6
		c7.1,6.9,18.7,10.4,34.8,10.4c12.4,0,24.1-0.9,34.9-2.7c3.1-0.5,4.6,0.5,4.6,3.2v13.5c0,2.5-1.4,4.4-4.3,5.7
		c-9.7,3.8-23.2,5.7-40.3,5.7c-24.5,0-42.6-5.9-54.2-17.6c-11.6-11.7-17.4-28.1-17.4-49.2v-10.6c0-20.9,5.8-37.3,17.4-49.2
		c11.6-11.9,29.2-17.8,52.9-17.8c16.6,0,29.9,1.8,40,5.4c2.9,0.9,4.3,2.8,4.3,5.7c0,17-0.4,28.9-1.1,35.7c-0.2,2.7-1.8,4-4.9,4H99
		c-2.9,0-4.6-1.4-5.1-4.3C92.8,266.8,91.9,259.8,91.1,250.9z"/>
	<path class="st1" d="M136.3,302.3v-9.2c0-22.2,5.7-39,17-50.5c11.4-11.4,27.6-17.2,48.7-17.2c21.1,0,37.3,5.7,48.7,17.2
		c11.4,11.5,17,28.3,17,50.5v9.2c0,22.2-5.7,39-17,50.4c-11.4,11.5-27.6,17.2-48.7,17.2c-21.1,0-37.3-5.7-48.7-17.2
		C142,341.3,136.3,324.5,136.3,302.3z M167.7,294.2v7c0,14.4,2.6,25.3,8,32.4c5.3,7.2,14.1,10.8,26.4,10.8c12.3,0,21-3.6,26.4-10.8
		c5.3-7.2,8-18,8-32.4v-7c0-14.4-2.6-25.3-8-32.5c-5.3-7.2-14.1-10.8-26.4-10.8c-12.3,0-21,3.6-26.4,10.8
		C170.3,268.9,167.7,279.8,167.7,294.2z"/>
	<path class="st1" d="M392.4,231.7v4.9c0,17-0.3,28.9-1.1,35.7c-0.2,2.7-1.8,4-4.9,4h-15.7c-2.9,0-4.6-1.4-5.1-4.3
		c-1.1-5.2-2-12.2-2.7-21.1c-12.2,0-22.6,0.8-31.1,2.5v88.4c5.8,0.2,12.5,1,20.3,2.4c2.9,0.5,4.3,2.3,4.3,5.1v14.3
		c0,2.7-1.3,4-4.1,4H281c-2.7,0-4-1.4-4-4v-14.3c0-2.9,1.4-4.6,4.3-5.1c5.8-1.1,12.2-1.8,19.2-2.2v-82.8c0-5.6-2.8-8.4-8.4-8.4H281
		c-2.7,0-4-1.4-4-4v-12.4c0-2.7,1.2-4.6,3.5-5.7c4.3-2.2,10.2-3.2,17.6-3.2c10.6,0,19,3.1,25.2,9.4c9.6-6.3,24.2-9.4,44.1-9.4
		c7.4,0,14.5,0.5,21.4,1.6C391.1,227.5,392.4,229,392.4,231.7z"/>
	<path class="st1" d="M519.8,231.7v4.9c0,17-0.4,28.9-1.1,35.7c-0.2,2.7-1.8,4-4.9,4h-15.7c-2.9,0-4.6-1.4-5.1-4.3
		c-1.1-5.2-2-12.2-2.7-21.1c-12.3,0-22.6,0.8-31.1,2.5v88.4c5.8,0.2,12.5,1,20.3,2.4c2.9,0.5,4.3,2.3,4.3,5.1v14.3c0,2.7-1.3,4-4,4
		h-71.4c-2.7,0-4.1-1.4-4.1-4v-14.3c0-2.9,1.5-4.6,4.3-5.1c5.8-1.1,12.2-1.8,19.2-2.2v-82.8c0-5.6-2.8-8.4-8.4-8.4h-11.1
		c-2.7,0-4.1-1.4-4.1-4v-12.4c0-2.7,1.2-4.6,3.5-5.7c4.3-2.2,10.2-3.2,17.6-3.2c10.6,0,19,3.1,25.2,9.4c9.6-6.3,24.3-9.4,44.1-9.4
		c7.4,0,14.5,0.5,21.4,1.6C518.5,227.5,519.8,229,519.8,231.7z"/>
	<path class="st1" d="M609.5,344.5c13,0,25-0.8,36-2.4c3.1-0.5,4.6,0.5,4.6,3.2v13.5c0,2.9-1.4,4.8-4.3,5.7
		c-11.4,3.6-25.1,5.4-41.1,5.4c-25.3,0-43.6-5.9-55.2-17.6c-11.5-11.7-17.3-29.2-17.3-52.5v-7c0-21.6,5.6-38.2,16.9-49.9
		c11.3-11.6,27.7-17.4,49.4-17.4c20,0,35.3,5.1,45.7,15.3c10.5,10.2,15.7,24,15.7,41.5c0,20.9-12.8,31.4-38.4,31.4h-57.1
		c1.5,11.2,5.9,19.1,13.4,23.8C585.2,342.2,595.9,344.5,609.5,344.5z M563.6,288.2h55.7c6.1,0,9.2-2.7,9.2-8.1
		c0-19.5-10.2-29.2-30.6-29.2C575.7,250.9,564.3,263.3,563.6,288.2z"/>
	<path class="st1" d="M688.8,335.9l-0.3-82.2c-7.4-0.5-13.8-1.4-19.2-2.5c-2.9-0.5-4.3-2.2-4.3-5.1v-14.3c0-2.7,1.3-4,4.1-4h46.8
		c2.7,0,4,1.4,4,4v104.4c0,5.6,2.8,8.4,8.5,8.4h11.2c2.7,0,4.1,1.4,4.1,4V361c0,2.7-1.2,4.6-3.6,5.7c-4.9,2.2-11.3,3.2-19.2,3.2
		C699.5,369.9,688.8,358.6,688.8,335.9z"/>
	<path class="st1" d="M793.2,251.4c-0.2,4.4-0.9,9.4-2.2,15.1c-0.5,2.9-2.3,4.4-5.1,4.4h-16.2c-3.1,0-4.7-1.3-4.9-4.1
		c-0.7-7.9-1.1-18-1.1-30.3c0-2.9,1.4-4.8,4.3-5.7c10.1-3.6,23.4-5.4,40-5.4c25.4,0,43.2,4.2,53.3,12.4
		c10.1,8.3,15.1,22.3,15.1,41.9v56.3c0,5.6,2.8,8.4,8.4,8.4h11.1c2.7,0,4.1,1.4,4.1,4V361c0,2.7-1.2,4.6-3.5,5.7
		c-4.3,2.2-10.2,3.2-17.6,3.2c-10.6,0-19-3.1-25.2-9.5c-9,6.3-22.4,9.5-40,9.5c-22.7,0-38.7-3.5-48.1-10.4
		c-9.4-6.9-14.1-18.2-14.1-33.7c0-14.4,4.4-25.4,13.1-32.9c8.7-7.5,21.2-11.2,37.5-11.2c16,0,30.4,2.7,43,8.1v-5.7
		c0-13-2.8-21.8-8.4-26.4c-5.6-4.6-17.3-6.9-35.2-6.9C798.5,250.9,795.7,251.1,793.2,251.4z M818.3,344.5c10.5,0,19.4-0.8,26.8-2.4
		v-32.7c-8.7-1.6-19.1-2.5-31.4-2.5c-11.7,0-19.8,1.4-24.2,4.3c-4.4,2.9-6.6,7.8-6.6,14.6c0,6.9,2.5,11.7,7.4,14.5
		C795.3,343.1,804.6,344.5,818.3,344.5z"/>
	<g>
		<path class="st0" d="M754.8,72.4c-11.4-11.5-27.6-17.2-48.7-17.2c-21.1,0-37.3,5.7-48.7,17.2c-11.4,11.5-17.1,28.2-17.1,50.4v9.2
			c0,22.2,5.7,39,17.1,50.4c7.9,8,18.4,13,31.1,15.4v-23c0-1.7,0.6-2.7,1.6-3.5c-4.3-1.8-7.8-4.4-10.4-8c-5.3-7.2-8-18-8-32.4v-7.1
			c0-14.4,2.6-25.2,8-32.4c5.3-7.2,14.1-10.8,26.4-10.8c12.3,0,21.1,3.6,26.4,10.8c5.3,7.2,8,18,8,32.4v7.1c0,14.4-2.7,25.2-8,32.4
			c-2.9,4-7.1,6.8-12.1,8.5c0.6,0.7,0.9,1.6,0.9,2.9v1.3c0,7.8-1.4,15.1-4.1,21.9c-0.1,0.3-0.2,0.5-0.4,0.7c15.9-1.7,28.7-7,38-16.4
			c11.3-11.4,17-28.3,17-50.4v-9.2C771.8,100.6,766.1,83.8,754.8,72.4z"/>
	</g>
</g>
</svg>
